<svg xmlns="http://www.w3.org/2000/svg" width="245" height="244" viewBox="0 0 245 244"><defs><clipPath id="di4ea"><path d="M0 0h245v244H0z"/></clipPath></defs><g><g><g><g/><g clip-path="url(#di4ea)"><path fill="#250044" d="M122.5 0C190.152 0 245 54.625 245 122c0 5.344-.347 10.61-1.02 15.773a120.218 120.218 0 0 1-7.484 28.973c-15.261 38.537-49.656 67.47-91.52 75.2-.473.094-.948.18-1.421.26-1.226.212-2.467.409-3.707.582-3.098.433-6.227.755-9.389.96-1.47.095-2.94.158-4.426.197a120.685 120.685 0 0 1-9.587-.094C51.608 240.71 0 187.353 0 122 0 54.625 54.85 0 122.5 0zM80.09 159.694l2.483-2.534a16.995 16.995 0 0 1 9.063-8.635 16.787 16.787 0 0 1 6.33-1.228c7.776 0 14.342 5.258 16.31 12.397h45.937v-77.19H76.788v77.19zm89.079 0h4.797c1.968-7.139 8.527-12.397 16.312-12.397 7.785 0 14.352 5.258 16.32 12.397h5.833v-27.62l-23.607-26.831h-19.655z"/></g></g><g><path fill="#dfe3f5" d="M69 166.687l45.128 76.833c8.291.532 20.356 1.236 34.14-1.684 28.07-5.95 46.32-20.812 52.874-26.23 3.127-2.586 20.054-16.93 31.032-37.67 7.556-14.272 10.028-29.195 10.806-32.726.196-.893-1.093.495-.992 0L169.42 75z"/></g><g><path fill="#fff" d="M219.887 127.673a4.388 4.388 0 0 1 1.113 2.924v33.615c0 2.447-2.006 4.438-4.472 4.438h-10.304c-1.968 7.104-8.536 12.35-16.318 12.35a16.89 16.89 0 0 1-10.337-3.512c-2.86-2.196-4.995-5.285-5.974-8.838h-59.677c-1.969 7.104-8.535 12.35-16.31 12.35-7.785 0-14.35-5.246-16.31-12.35h-9.34c-.056 0-.112 0-.167-.007-.08 0-.15 0-.229-.016-2.285-.196-4.078-2.102-4.078-4.415v-4.508H41.597c-2.474 0-4.473-1.992-4.473-4.439 0-2.454 2-4.437 4.473-4.437h25.887v-57.53H24.473c-2.466 0-4.473-1.985-4.473-4.431 0-2.454 2.007-4.438 4.473-4.438h43.011v-5.99a4.437 4.437 0 0 1 4.078-4.415 3.18 3.18 0 0 1 .395-.024h92.37c2.465 0 4.472 1.985 4.472 4.439v18.214h21.683c1.288 0 2.513.557 3.367 1.514zm-122.28 44.45c4.394 0 7.974-3.55 7.974-7.91 0-4.368-3.58-7.913-7.973-7.913-4.394 0-7.974 3.545-7.974 7.912 0 4.36 3.58 7.912 7.974 7.912zm62.246-89.246H76.43v76.887h4.86c.126-.446.268-.878.426-1.31 0-.007 0-.007.007-.014.143-.409.31-.808.491-1.2a16.969 16.969 0 0 1 9.064-8.6 16.845 16.845 0 0 1 6.33-1.224c7.775 0 14.341 5.238 16.31 12.348h45.935zm30.053 89.247c4.393 0 7.973-3.551 7.973-7.912 0-4.367-3.58-7.912-7.973-7.912-4.394 0-7.974 3.545-7.974 7.912 0 4.36 3.58 7.912 7.974 7.912zm22.15-39.864l-23.604-26.73h-19.653v54.244h4.796c1.967-7.111 8.527-12.35 16.31-12.35 7.783 0 14.351 5.239 16.319 12.35h5.831z"/></g><g><path fill="#250044" d="M212 132.61V160h-5.797c-1.956-7.079-8.485-12.294-16.221-12.294-7.738 0-14.259 5.215-16.214 12.294H169v-54h19.536z"/></g><g><path fill="#250044" d="M80.286 160H77V83h83v77h-45.703c-1.957-7.12-8.49-12.366-16.227-12.366-2.225 0-4.348.432-6.297 1.225-.362.14-.716.298-1.062.47a16.936 16.936 0 0 0-7.955 8.143"/></g><g><path fill="#fff" d="M106 164c0 4.41-3.592 8-8 8-4.408 0-8-3.59-8-8 0-4.415 3.592-8 8-8 4.408 0 8 3.585 8 8"/></g><g><path fill="#fff" d="M198 164c0 4.41-3.59 8-8 8-4.408 0-8-3.59-8-8 0-4.415 3.592-8 8-8 4.41 0 8 3.585 8 8"/></g><g><path fill="#fff" d="M29.658 145h-2.316c-2.398 0-4.342 2.015-4.342 4.5s1.944 4.5 4.342 4.5h2.316c2.398 0 4.342-2.015 4.342-4.5s-1.943-4.5-4.342-4.5"/></g><g><path fill="#fff" d="M59.517 111H11.483C9.008 111 7 113.015 7 115.5s2.008 4.5 4.483 4.5h48.034c2.476 0 4.483-2.015 4.483-4.5s-2.007-4.5-4.483-4.5"/></g></g></g></svg>