<svg xmlns="http://www.w3.org/2000/svg" width="245" height="245" viewBox="0 0 245 245"><path fill="#250044" d="M122.5 0C190.155 0 245 54.845 245 122.5S190.155 245 122.5 245 0 190.155 0 122.5 54.845 0 122.5 0"/><path fill="#dfe3f5" d="M245 122.672c0-4.348-.23-8.64-.672-12.87l-50.724-50.725L163.8 73.268l-9.82-10.035h-6.944L135.57 51.74l-8.312 10.99-10.723-10.99-8.312 10.99L97.5 51.74l-8.312 10.99-10.723-10.99L51.74 193.604l49.528 49.528A123.06 123.06 0 0 0 122.672 245C190.232 245 245 190.232 245 122.67"/><path fill="#250044" d="M193.265 57.83v115.13l-12.714 20.305h-5.008L162.83 172.96V57.83z"/><path fill="#250044" d="M193.257 57.83v115.13l-12.713 20.305h-2.504V57.83z"/><path fill="#fff" d="M51.74 193.26h101.957V62.39H51.74z"/><path fill="#250044" d="M101.96 193.26h51.74V62.39h-51.74zM80.663 115.653L71.52 104.78l6.454-5.368 3.557 4.23 8.721-7.773 5.616 6.231z"/><path fill="#fff" d="M97.39 111.089h38.043v-7.609H97.39z"/><path fill="#250044" d="M80.663 140.003L71.52 129.13l6.454-5.367 3.557 4.23 8.721-7.774 5.616 6.232z"/><path fill="#fff" d="M97.39 135.439h38.043v-7.609H97.39z"/><path fill="#250044" d="M80.663 164.353L71.52 153.48l6.454-5.368 3.557 4.23 8.721-7.773 5.616 6.232z"/><path fill="#fff" d="M97.39 159.779h38.043v-7.609H97.39z"/><path fill="#dfe3f5" d="M70 76.088h7.609V51.74H70zM88.26 76.088h7.609V51.74H88.26zM108.04 76.088h7.609V51.74h-7.609zM127.83 76.088h7.609V51.74h-7.609z"/><path fill="#fff" d="M193.265 173.48v.01l-12.714 19.773h-5.008L162.83 173.49v-.011zM162.83 85.221h30.435V57.83H162.83z"/><path fill="#fff" d="M178.04 85.221h15.217V57.83H178.04zM178.04 173.48h15.217v.01l-12.713 19.773h-2.504z"/></svg>