<svg xmlns="http://www.w3.org/2000/svg" width="245" height="245" viewBox="0 0 245 245"><defs><clipPath id="a"><path d="M-7 245h245V0H-7z"/></clipPath></defs><path fill="#250044" d="M245 122.5c0 5.366-.347 10.654-1.02 15.838a121.11 121.11 0 0 1-7.484 29.092c-15.435 39.129-50.438 68.402-92.941 75.768a113.49 113.49 0 0 1-3.707.585c-3.098.435-6.228.759-9.39.964-1.47.095-2.94.158-4.425.198a118.357 118.357 0 0 1-9.587-.095C51.608 241.696 0 188.12 0 122.5 0 54.848 54.848 0 122.5 0S245 54.848 245 122.5"/><path fill="#dfe3f5" d="M126.03 244.949c1.463-.174 2.94-.293 4.427-.198a126.73 126.73 0 0 0 9.388-.964c1.241-.173 2.482-.37 3.707-.585 10.973-1.973 33.04-7.464 54.817-24.674 23.452-18.533 33.958-40.693 38.126-51.094a120.924 120.924 0 0 0 4.615-14.193 121.593 121.593 0 0 0 2.868-14.899L179.401 73.11l.088-.078-9.833-10.045h-6.955L151.218 51.47l-8.321 11.01-10.742-11.01-8.322 11.01-10.731-11.01-.01.008-8.32 11.001L94.039 51.47l-2.173 11.516-2.293 12.187L67.27 193.538l49.174 51.316z"/><g clip-path="url(#a)"><path fill="#fff" d="M67.28 193.533h102.385V62.98H67.28z"/></g><g clip-path="url(#a)"><path fill="#dfe3f5" d="M85.71 75.167h8.324V51.47H85.71z"/></g><g clip-path="url(#a)"><path fill="#dfe3f5" d="M104.77 75.167h8.324V51.47h-8.324z"/></g><g clip-path="url(#a)"><path fill="#dfe3f5" d="M123.84 75.167h8.324V51.47h-8.324z"/></g><g clip-path="url(#a)"><path fill="#dfe3f5" d="M142.9 75.167h8.324V51.47H142.9z"/></g><g clip-path="url(#a)"><path fill="#250044" d="M113.02 155.301h11.855V103.93H113.02z"/></g><g clip-path="url(#a)"><path fill="#250044" d="M92.47 135.545h51.371V123.69H92.47z"/></g></svg>