<svg xmlns="http://www.w3.org/2000/svg" viewBox="0 0 370.52 58.94"><defs><style>.cls-1{fill:#250044;}.cls-2{fill:none;stroke:#250044;stroke-miterlimit:10;stroke-width:3px;}</style></defs><title>Asset 9</title><g id="Layer_2" data-name="Layer 2"><g id="Layer_1-2" data-name="Layer 1"><path class="cls-1" d="M13,53.17A24.66,24.66,0,0,1,3.46,44,25.49,25.49,0,0,1,0,30.74,25.53,25.53,0,0,1,3.46,17.52,24.51,24.51,0,0,1,13,8.31,28.05,28.05,0,0,1,26.71,5a28.52,28.52,0,0,1,10.8,2,22,22,0,0,1,8.35,5.87l-4.68,4.54a18.75,18.75,0,0,0-14.18-6,20.54,20.54,0,0,0-10.15,2.52,18.22,18.22,0,0,0-7.09,7,19.38,19.38,0,0,0-2.56,9.9,19.38,19.38,0,0,0,2.56,9.9,18.22,18.22,0,0,0,7.09,7A20.54,20.54,0,0,0,27,50.11a18.81,18.81,0,0,0,14.18-6l4.68,4.53a22.39,22.39,0,0,1-8.38,5.91,28.46,28.46,0,0,1-10.84,2A27.81,27.81,0,0,1,13,53.17Z"/><path class="cls-1" d="M86.11,39.16h-31a12,12,0,0,0,4.43,8.1A14.45,14.45,0,0,0,69,50.32a14.11,14.11,0,0,0,11-4.61l3.82,4.47a16.84,16.84,0,0,1-6.45,4.61,22.49,22.49,0,0,1-8.6,1.58A22.62,22.62,0,0,1,58,53.89a17.74,17.74,0,0,1-7.23-7,19.88,19.88,0,0,1-2.56-10.08,20.3,20.3,0,0,1,2.48-10,17.85,17.85,0,0,1,6.84-7,19.56,19.56,0,0,1,9.83-2.48,19.17,19.17,0,0,1,9.76,2.48,17.42,17.42,0,0,1,6.69,7,21.14,21.14,0,0,1,2.42,10.22A19,19,0,0,1,86.11,39.16Zm-27-12.89a12.21,12.21,0,0,0-3.93,7.92H79.63a12.26,12.26,0,0,0-3.92-7.88,11.87,11.87,0,0,0-8.32-3.06A12,12,0,0,0,59.08,26.27Z"/><path class="cls-1" d="M106,19.15a19.26,19.26,0,0,1,8.57-1.73v6.69A15.51,15.51,0,0,0,113,24q-5.62,0-8.82,3.35t-3.21,9.54v19H94V17.78h6.63v6.41A11.76,11.76,0,0,1,106,19.15Z"/><path class="cls-1" d="M155.23,39.16h-31a12,12,0,0,0,4.43,8.1,14.45,14.45,0,0,0,9.4,3.06,14.11,14.11,0,0,0,11-4.61l3.82,4.47a16.84,16.84,0,0,1-6.45,4.61,24.34,24.34,0,0,1-19.33-.9,17.74,17.74,0,0,1-7.23-7,19.88,19.88,0,0,1-2.56-10.08,20.3,20.3,0,0,1,2.48-10,17.85,17.85,0,0,1,6.84-7,19.56,19.56,0,0,1,9.83-2.48,19.17,19.17,0,0,1,9.76,2.48,17.49,17.49,0,0,1,6.69,7,21.14,21.14,0,0,1,2.42,10.22A19,19,0,0,1,155.23,39.16Zm-27-12.89a12.21,12.21,0,0,0-3.93,7.92h24.48a12.26,12.26,0,0,0-3.92-7.88,12.89,12.89,0,0,0-16.63,0Z"/><path class="cls-1" d="M193.32,19.87a17.6,17.6,0,0,1,6.88,6.84,20.3,20.3,0,0,1,2.48,10.15A20.49,20.49,0,0,1,200.2,47a17.51,17.51,0,0,1-6.88,6.88,20.09,20.09,0,0,1-9.94,2.45,18,18,0,0,1-7.77-1.66,14.91,14.91,0,0,1-5.83-4.82v6h-6.63V2.51h6.91v21A14.79,14.79,0,0,1,175.82,19a18.35,18.35,0,0,1,7.56-1.54A20,20,0,0,1,193.32,19.87ZM189.4,48.63a12.15,12.15,0,0,0,4.6-4.75,14.25,14.25,0,0,0,1.7-7,14.25,14.25,0,0,0-1.7-7,11.94,11.94,0,0,0-4.6-4.72,13.83,13.83,0,0,0-13.14,0,11.64,11.64,0,0,0-4.61,4.72,14.45,14.45,0,0,0-1.66,7,14.45,14.45,0,0,0,1.66,7,11.84,11.84,0,0,0,4.61,4.75,13.62,13.62,0,0,0,13.14,0Z"/><path class="cls-1" d="M222.41,19.15A19.23,19.23,0,0,1,231,17.42v6.69a15.88,15.88,0,0,0-1.59-.07q-5.61,0-8.82,3.35t-3.2,9.54v19h-6.91V17.78h6.62v6.41A11.74,11.74,0,0,1,222.41,19.15Z"/><path class="cls-1" d="M263.63,21.31q4.2,3.89,4.21,11.59v23h-6.55v-5A11,11,0,0,1,256.35,55a18.7,18.7,0,0,1-7.59,1.41q-6.4,0-10.26-3.1a9.91,9.91,0,0,1-3.85-8.13,10,10,0,0,1,3.67-8.1Q242,34,250,34h11V32.61q0-4.47-2.6-6.84c-1.72-1.58-4.27-2.38-7.63-2.38a20.32,20.32,0,0,0-6.62,1.12,16.86,16.86,0,0,0-5.47,3l-2.88-5.19a20.91,20.91,0,0,1,7.05-3.63,29.56,29.56,0,0,1,8.72-1.26Q259.4,17.42,263.63,21.31Zm-6.88,28a10.16,10.16,0,0,0,4.18-5V38.94H250.27q-8.79,0-8.78,5.91a5.35,5.35,0,0,0,2.23,4.54A10.23,10.23,0,0,0,249.91,51,12.89,12.89,0,0,0,256.75,49.28Z"/><path class="cls-1" d="M278.85,2.51h6.92V55.94h-6.92Z"/><polygon class="cls-2" points="341.17 55.94 367.92 9.6 314.42 9.6 341.17 55.94"/><polygon class="cls-2" points="341.17 47.84 367.92 1.5 314.42 1.5 341.17 47.84"/></g></g></svg>