<svg width="1362" height="908" viewBox="0 0 1362 908" fill="none" xmlns="http://www.w3.org/2000/svg">
<path fill-rule="evenodd" clip-rule="evenodd" d="M252.4 682.884C235.84 674.472 219.745 666.356 203.745 658.144C199.321 655.868 193.119 653.666 191.271 650.807C181.701 635.991 164.82 634.006 146.955 633.873C128.695 633.739 160.598 634.201 140.428 634.425C136.549 629.283 130.265 623.953 117.673 628.053C114.361 629.13 105.564 625.69 100.484 623.094C83.4162 614.377 97.1852 604.792 80.0676 596.134C65.4183 588.722 55.2311 570.754 60.9302 561.014C62.5137 558.303 63.6803 554.748 61.6882 551.683C59.7447 548.692 57.6729 549.035 56.1274 546.5C53.8255 542.725 54.6114 535.28 54.6114 535.28C54.6114 535.28 61.8347 524.362 90.2064 527.305C96.2676 527.934 101.891 522.163 107.76 519.381C111.626 517.549 65.9939 516.078 69.3482 513.898C72.2991 511.977 75.5619 509.56 75.8888 506.846C76.0372 505.57 69.7197 502.979 66.1555 501.161C61.6553 498.868 56.9739 496.759 52.3697 494.568C55.8639 492.764 59.3759 490.977 62.8316 489.15C69.2363 485.758 76.0006 482.614 81.9085 478.872C90.6859 473.309 98.854 467.314 109.149 460.212C89.1949 457.001 83.3659 450.141 84.8044 439.572C85.0728 437.586 77.5978 433.423 72.8642 431.382C68.674 429.583 63.3139 429.336 55.1882 427.77C65.3839 423.22 72.1651 420.192 78.9394 417.163C78.8318 415.729 78.7252 414.291 78.6187 412.853C52.5035 414.606 64.6585 406.724 54.7041 389.932C69.0293 385.607 54.236 381.105 69.2802 376.42C72.471 375.424 76.9591 374.286 77.6157 372.328C80.2151 364.615 83.5195 358.662 99.358 364.216C99.9127 364.41 104.915 360.093 104.336 357.822C102.95 352.425 94.9952 344.23 97.7219 342.14C103.788 337.491 114.087 334.773 123.869 333.25C154.782 328.448 186.18 324.425 217.551 320.391C227.716 319.079 238.299 318.455 248.85 317.909C260.954 317.284 261.059 313.598 253.077 307.101C237.809 294.676 238.996 288.933 258.738 285.338C269.452 283.387 281.467 283.432 292.233 281.54C294.77 281.098 296.16 274.378 295.455 274.075C287.48 270.655 281.709 266.712 286.737 261.523C288.733 259.466 295.978 257.879 299.11 259.034C306.721 261.848 319.678 261.139 319.771 270.807C319.777 271.795 321.281 272.973 322.842 275.076C333.329 271.006 343.455 267.074 354.464 262.801C353.491 251.628 365.314 244.842 383.864 247.138C388.505 247.712 393.728 249.124 397.705 248.521C458.298 239.252 524.983 245.898 587.101 240.033C608.601 238.004 631.922 232.741 657.411 241.11C660.944 242.273 666.178 242.434 669.298 241.52C709.382 229.799 756.002 236.123 800.536 236.979C830.6 237.56 861.008 239.569 891.197 240.593C895.441 240.737 899.295 238.926 903.261 237.925C907.763 236.79 911.929 234.389 916.68 234.551C949.158 235.667 981.651 236.18 1014.34 239.284C1029.29 240.705 1041.42 243.761 1056.56 239.44C1071.2 235.255 1093.62 240.247 1112.62 241.21C1140.31 242.61 1167.94 242.77 1195.73 245.803C1217.99 248.233 1240.45 254.146 1262.96 258.544C1258.86 281.844 1263.03 285.595 1292.04 284.689C1293.22 290.781 1294.39 296.683 1295.48 302.579C1296.46 307.925 1297.83 313.317 1298.05 318.576C1298.15 321.278 1297.08 324.266 1294.9 326.209C1278.62 340.811 1280.94 361.536 1300.91 379.472C1303.78 382.045 1306.99 385.568 1306.86 388.169C1306.38 398.775 1305.16 409.306 1303.1 419.623C1302.44 422.963 1297.66 425.322 1296.01 428.554C1293.31 433.88 1286.93 441.007 1290.33 444.816C1303.07 459.072 1289.17 463.532 1280.33 470.547C1276.9 473.273 1276.64 477.847 1273.64 480.913C1269.86 484.766 1264.76 487.932 1262.36 489.76C1261.26 498.429 1259.1 505.811 1259.68 513.465C1260.29 521.322 1264.79 529.561 1265.38 537.419C1266.03 545.985 1263.79 554.251 1263.51 562.748C1263.35 567.948 1262.46 573.698 1265.55 578.573C1270.41 586.227 1274.77 592.968 1268.19 599.612C1266.27 601.542 1264.6 605.456 1266.29 607.091C1283.7 623.923 1256.07 637.971 1274.12 654.675C1274.94 655.43 1274.84 657.485 1273.96 657.911C1254.59 667.233 1264.88 688.973 1245.09 698.155C1240.9 700.091 1238.88 704.381 1234.26 705.373C1217.21 709.045 1200.06 713 1181.88 714.521C1164.67 715.965 1146.09 714.404 1128.17 714.37C1125 714.368 1120.43 714.674 1119.39 716.075C1107.86 731.728 1084.69 725.853 1063.19 723.745C1057.52 723.187 1051.96 724.694 1046.42 725.388C1035.3 726.779 1024.47 728.896 1013.04 729.517C1003.07 730.056 992.455 729.071 982.084 728.551C918.573 725.381 855.107 722.522 791.506 718.824C736.1 715.599 680.622 712.462 625.006 707.268C590.585 704.055 558.154 705.745 525.102 706.353C519.141 706.465 512.399 704.035 506.006 703.1C500.342 702.271 494.21 700.968 489.065 701.466C446.566 705.571 403.506 707.16 358.078 701.439C341.952 699.412 325.818 700.393 309.772 697.985C295.456 695.84 281.247 690.958 267.02 687.194C262.189 685.919 257.443 684.377 252.4 682.884Z" fill="#D2EFF6"/>
</svg>
